<?xml version="1.0" encoding="iso-8859-1"?>
<!-- Uploaded to: SVG Repo, www.svgrepo.com, Generator: SVG Repo Mixer Tools -->
<svg height="800px" width="800px" version="1.1" id="Capa_1" xmlns="http://www.w3.org/2000/svg" xmlns:xlink="http://www.w3.org/1999/xlink" 
	 viewBox="0 0 127.122 127.122" xml:space="preserve">
<g>
	<path style="fill:#010002;" d="M25.553,5.496C11.46,5.496,0,16.962,0,31.054c0,14.103,11.46,25.553,25.553,25.553
		s25.558-11.455,25.558-25.553C51.111,16.962,39.645,5.496,25.553,5.496z M25.553,43.836c-7.049,0-12.776-5.733-12.776-12.782
		c0-7.038,5.727-12.782,12.776-12.782s12.782,5.744,12.782,12.782C38.335,38.103,32.602,43.836,25.553,43.836z M127.122,34.323
		V14.454H61.766v107.171h24.171V78.537h38.481V58.815H85.937V34.323H127.122z"/>
</g>
</svg>